# xmcd CD database file
#
# Track frame offsets:
#	150
#	18144
#	37032
#	53917
#	72949
#	99845
#	119756
#	134027
#	151656
#	171666
#	187554
#	204345
#	219570
#	235003
#	254170
#	273364
#	287981
#	302456
#
# Disc length: 4220 seconds
#
# Revision: 1
# Processed by: cddbd v1.5.2PL0 Copyright (c) Steve Scherf et al.
# Submitted via: CDex 1.51
#
DISCID=05107a12
DTITLE=Various Artist - MR-EH-118
DYEAR=1900
DGENRE=Blues
TTITLE0=Cheryl Cole Ft Tinie Tempah - Crazy Stupid Love
TTITLE1=Ed Sheeran - All Of The Stars
TTITLE2=Ellie Goulding - Beating Heart
TTITLE3=Paloma Faith - Only Love Can Hurt Like This
TTITLE4=Eminem Ft Nate Ruess - Headlights
TTITLE5=Clean Bandit Ft Sharma Bass - Extraordinary
TTITLE6=5 Seconds Of Summer - Don't Stop
TTITLE7=Twin Atlantic - Heart and Soul
TTITLE8=Usher - Good Kisser
TTITLE9=Grande Ariana Ft Iggy Azalea - Problem
TTITLE10=Foxes - Holding On To Heaven
TTITLE11=Secondcity - I Wanna Feel
TTITLE12=Tiesto Ft Matthew Koma - Wasted
TTITLE13=Fuse ODG Ft Sean Paul - Dangerous Love
TTITLE14=Nico and Vinz - Am I Wrong
TTITLE15=Lethal Bizzie Ft Cherri Voncelle - The Drop
TTITLE16=Wurst Conchita - Rise Like A Phoenix
TTITLE17=Kasabian - Eez-Eh
EXTD=
EXTT0=
EXTT1=
EXTT2=
EXTT3=
EXTT4=
EXTT5=
EXTT6=
EXTT7=
EXTT8=
EXTT9=
EXTT10=
EXTT11=
EXTT12=
EXTT13=
EXTT14=
EXTT15=
EXTT16=
EXTT17=
PLAYORDER=
